/* XPM */
static char * C:\Users\dave\Desktop\icons\xuez32_xpm[] = {
"32 32 143 2",
"  	c None",
". 	c #17114A",
"+ 	c #191248",
"@ 	c #161150",
"# 	c #19154E",
"$ 	c #151F51",
"% 	c #18114E",
"& 	c #1A1758",
"* 	c #041251",
"= 	c #0A1351",
"- 	c #100F4E",
"; 	c #141157",
"> 	c #09004F",
", 	c #D2D0DC",
"' 	c #DAD7E5",
") 	c #D8D4E1",
"! 	c #DDDBE6",
"~ 	c #EAE6F1",
"{ 	c #9394B6",
"] 	c #7A81A9",
"^ 	c #7A82A6",
"/ 	c #8581AB",
"( 	c #8985AF",
"_ 	c #E5E1ED",
": 	c #B4B0B7",
"< 	c #EDE9F7",
"[ 	c #CAC7D6",
"} 	c #BCBAC9",
"| 	c #6F769D",
"1 	c #6C749A",
"2 	c #6B729A",
"3 	c #71709F",
"4 	c #8D8CB3",
"5 	c #ECE8F4",
"6 	c #AFADB5",
"7 	c #000C49",
"8 	c #11195D",
"9 	c #A09EBE",
"0 	c #E2E0EA",
"a 	c #232F67",
"b 	c #172460",
"c 	c #192661",
"d 	c #1D2B61",
"e 	c #0F1F58",
"f 	c #0A1653",
"g 	c #0B1857",
"h 	c #3A4671",
"i 	c #2E3A70",
"j 	c #CBCADB",
"k 	c #A4A6C2",
"l 	c #505A88",
"m 	c #263266",
"n 	c #5F6598",
"o 	c #171869",
"p 	c #1F216D",
"q 	c #0E1146",
"r 	c #0C114A",
"s 	c #52577F",
"t 	c #7F85A7",
"u 	c #AEB0C5",
"v 	c #586392",
"w 	c #081656",
"x 	c #111E61",
"y 	c #1A1E6A",
"z 	c #0E0C39",
"A 	c #0E0C3F",
"B 	c #0B0D40",
"C 	c #5A5C82",
"D 	c #0C1B5A",
"E 	c #0C0B3C",
"F 	c #626286",
"G 	c #0A0736",
"H 	c #84829E",
"I 	c #0D1D5F",
"J 	c #22204B",
"K 	c #BAB7C9",
"L 	c #A7A9C3",
"M 	c #171F57",
"N 	c #1A1839",
"O 	c #141339",
"P 	c #111339",
"Q 	c #161840",
"R 	c #818293",
"S 	c #B5B2BB",
"T 	c #BFBCC3",
"U 	c #797D95",
"V 	c #101E52",
"W 	c #171A35",
"X 	c #151433",
"Y 	c #64657B",
"Z 	c #AEAAB0",
"` 	c #A7A6AE",
" .	c #ABA8AE",
"..	c #515776",
"+.	c #606987",
"@.	c #112359",
"#.	c #13265D",
"$.	c #14265A",
"%.	c #101033",
"&.	c #48485F",
"*.	c #0F1748",
"=.	c #141D4A",
"-.	c #6D7082",
";.	c #4A567A",
">.	c #121230",
",.	c #292942",
"'.	c #89888C",
").	c #9E9DA4",
"!.	c #121D4B",
"~.	c #747787",
"{.	c #1C1D3A",
"].	c #7B7A80",
"^.	c #8C8B91",
"/.	c #111334",
"(.	c #121844",
"_.	c #172453",
":.	c #787B8A",
"<.	c #203163",
"[.	c #73727B",
"}.	c #908E94",
"|.	c #13173A",
"1.	c #192957",
"2.	c #414C70",
"3.	c #817F83",
"4.	c #28365F",
"5.	c #76757A",
"6.	c #0E0E26",
"7.	c #595F6E",
"8.	c #A4A1A7",
"9.	c #949297",
"0.	c #686777",
"a.	c #676673",
"b.	c #747582",
"c.	c #99969B",
"d.	c #848487",
"e.	c #5D5C68",
"f.	c #3B3B50",
"g.	c #38384B",
"h.	c #5C5A67",
"i.	c #9C989E",
"j.	c #11112E",
"k.	c #141330",
"l.	c #181532",
"                                                                ",
"                              . +                               ",
"                            + . @ #                             ",
"                          $ @ % @ & &                           ",
"                          * = - @ ; ; >                         ",
"          , ' ) ) ' ! ~ { ] ^ ^ / ( ( { ! ! ! ! ! _ !           ",
"          : < ~ ' [ } | | | 1 2 2 | 3 4 ~ 5 ~ ~ < 5 !           ",
"            6 _ !   7 * * * * * * * 8 9 0 ! ! 0 ~ !             ",
"              6 ! a b c d e f g g g ^ ~ ! ! 0 5 !               ",
"                h i [ j j k b f * l ! ' ' ! _ {                 ",
"                * m , ! ! _ { f i , ! ' ! ! n o p               ",
"              q r r s ! ! ' 0 t u ! ' ! ! v w x y               ",
"            z A B B B C ! ! ' ! ! ' ! ! v w D D x y             ",
"          z z z z z E E F ! ' ' ' ! ! v w D D D D x y           ",
"        z z z z z z z E G H 0 ' ' 0 2 * g D D D D D I x         ",
"        z z z z z z z G J K ! ' ' ! L M = g g D D D I D         ",
"        N O O O O O P Q R : 6 : S S T U V V e e e e x           ",
"          W X X O O P Y Z `  ...Y Z ` Z +.e @.@.@.#.$.          ",
"            X X X %.&.Z  .Z ..*.=.-.Z  .Z ;.e @.#.$.            ",
"              X >.,.'.). ...*.!.V $ ~.Z  .).d @.@.              ",
"              X {.].^.^.&./.(.!.V V _.:.: ` <.@.                ",
"                [.}.^.&.>.X X |.=.V V 1.2.h m R                 ",
"              3.}.^.&.>.X X X X X |.!.e e D 4. . .              ",
"            ].^.^.5.6./.>.>.>.>.>.>.>.P !.V 7.8.6 `             ",
"            '.9.'.^.[.0.a.a.a.a.a.a.a.a.0.b.c.Z : `             ",
"            3.].].].d.e.f.g.g.g.g.g.g.g.h.3.].'.9.i.            ",
"                        >.>.j.j.j.j.>.j.                        ",
"                          X X k.k.X X                           ",
"                          l.X k.k.X X                           ",
"                            X X X X                             ",
"                              X X                               ",
"                                                                "};
