/* XPM */
static char * C:\Users\dave\Desktop\icons\xuez64_xpm[] = {
"64 64 188 2",
"  	c None",
". 	c #C0C0C8",
"+ 	c #909098",
"@ 	c #E0E0E0",
"# 	c #303060",
"$ 	c #201860",
"% 	c #A0A0A8",
"& 	c #404068",
"* 	c #201858",
"= 	c #302860",
"- 	c #585878",
"; 	c #181860",
"> 	c #303068",
", 	c #D8D8D8",
"' 	c #787890",
") 	c #202060",
"! 	c #202068",
"~ 	c #484868",
"{ 	c #9898A8",
"] 	c #202070",
"^ 	c #606080",
"/ 	c #B8B8C0",
"( 	c #182870",
"_ 	c #102068",
": 	c #808090",
"< 	c #D0D0D8",
"[ 	c #203868",
"} 	c #102870",
"| 	c #102868",
"1 	c #203070",
"2 	c #A0A0B0",
"3 	c #284070",
"4 	c #082068",
"5 	c #002068",
"6 	c #181868",
"7 	c #182070",
"8 	c #C0C0C0",
"9 	c #C0B8C0",
"0 	c #8888A0",
"a 	c #7078A0",
"b 	c #7878A8",
"c 	c #8080A8",
"d 	c #8080B0",
"e 	c #8888A8",
"f 	c #B8B8B8",
"g 	c #C0B8B8",
"h 	c #A0A0A0",
"i 	c #F0F0F8",
"j 	c #E8E8F0",
"k 	c #F0E8F8",
"l 	c #F0F0F0",
"m 	c #F8F8F8",
"n 	c #D0D0D0",
"o 	c #E0E0E8",
"p 	c #B8B0B8",
"q 	c #A0A0B8",
"r 	c #98A0B8",
"s 	c #9898B8",
"t 	c #E8E0F0",
"u 	c #E8E0E8",
"v 	c #082060",
"w 	c #082868",
"x 	c #102070",
"y 	c #182078",
"z 	c #E8E8E8",
"A 	c #183068",
"B 	c #082870",
"C 	c #182878",
"D 	c #686898",
"E 	c #9898A0",
"F 	c #283870",
"G 	c #405088",
"H 	c #E0D8E8",
"I 	c #384070",
"J 	c #C0C0D0",
"K 	c #506080",
"L 	c #283878",
"M 	c #485888",
"N 	c #505888",
"O 	c #506088",
"P 	c #606888",
"Q 	c #8890A8",
"R 	c #F0E8F0",
"S 	c #7878A0",
"T 	c #9098A8",
"U 	c #586890",
"V 	c #6870A8",
"W 	c #788090",
"X 	c #B0B0B8",
"Y 	c #D8D8E8",
"Z 	c #405080",
"` 	c #304078",
" .	c #202878",
"..	c #283080",
"+.	c #C8C8D0",
"@.	c #182860",
"#.	c #102060",
"$.	c #485880",
"%.	c #D8D0E0",
"&.	c #C8C8D8",
"*.	c #B0B0C8",
"=.	c #607098",
"-.	c #203078",
";.	c #283860",
">.	c #101860",
",.	c #102058",
"'.	c #081860",
").	c #586080",
"!.	c #D8D8E0",
"~.	c #B8B8C8",
"{.	c #384880",
"].	c #404868",
"^.	c #101850",
"/.	c #081858",
"(.	c #181858",
"_.	c #586088",
":.	c #E0D8E0",
"<.	c #202880",
"[.	c #606078",
"}.	c #101050",
"|.	c #606890",
"1.	c #101048",
"2.	c #707090",
"3.	c #6870A0",
"4.	c #787898",
"5.	c #181848",
"6.	c #6878A0",
"7.	c #202050",
"8.	c #687098",
"9.	c #303058",
"0.	c #081048",
"a.	c #304878",
"b.	c #707088",
"c.	c #181850",
"d.	c #B0B0C0",
"e.	c #103070",
"f.	c #282850",
"g.	c #101848",
"h.	c #202048",
"i.	c #182050",
"j.	c #C8C0C8",
"k.	c #788088",
"l.	c #384060",
"m.	c #A8A8B0",
"n.	c #103068",
"o.	c #485060",
"p.	c #182040",
"q.	c #687088",
"r.	c #888890",
"s.	c #283048",
"t.	c #686888",
"u.	c #283058",
"v.	c #8088A0",
"w.	c #202040",
"x.	c #181840",
"y.	c #989898",
"z.	c #808088",
"A.	c #102860",
"B.	c #B0B8B8",
"C.	c #303050",
"D.	c #B0A8B0",
"E.	c #102858",
"F.	c #183060",
"G.	c #304060",
"H.	c #405078",
"I.	c #808898",
"J.	c #A098A0",
"K.	c #384868",
"L.	c #A8A8A8",
"M.	c #606070",
"N.	c #585870",
"O.	c #182868",
"P.	c #283868",
"Q.	c #B0B0B0",
"R.	c #909090",
"S.	c #686868",
"T.	c #181838",
"U.	c #C8C8C8",
"V.	c #282838",
"W.	c #485878",
"X.	c #383850",
"Y.	c #888088",
"Z.	c #989098",
"`.	c #908890",
" +	c #A8A0A8",
".+	c #404050",
"++	c #282848",
"@+	c #585868",
"                                                                                                                                ",
"                                                              . +                                                               ",
"                                                            @ # $ %                                                             ",
"                                                            & $ * = .                                                           ",
"                                                          - $ * $ ; > ,                                                         ",
"                                                        ' $ ) $ ) ) ! ~                                                         ",
"                                                      { ) $ $ ) $ ) ! ] ^                                                       ",
"                                                    / ( _ ) ) ) ! ! ! ! ] :                                                     ",
"                                                  < [ } | _ ! ! ! ! ! ] ] 1 2                                                   ",
"                                                  3 4 5 4 5 4 ; 6 6 6 6 6 7 ] 8                                                 ",
"                  @ 8 8 8 8 8 8 9 8 9 8 9 8 / 8 0 a a a a a a b c c c d d d e e / / 8 / f 9 / f 9 f / g / 8                     ",
"                  h i j j j j j j k i i i i i i i i l i i i i i i i m i m i m i i i k i i i i i i i i i i j n                   ",
"                  @ % j o o o o o < f p f p q q q q q q r q r r s r q q q q s q o t u j u t u t u t u j u 8                     ",
"                      h t o o o j /       % | 4 v w v 4 v 4 4 4 4 4 4 x ( ] y e j t u t z t u j u t j o 8                       ",
"                        h t o o j /     . A | | | | | | | | | | } | } B } C D j t z t u t z t u t j u 8                         ",
"                          E t o j /   , F | | 4 | w _ w _ w | w | B | } 4 G H j u t z t u t z t j u 8                           ",
"                            E o k /   I 4 4 v 4 v 4 v | | | | | | | } w 1 J j o t z t u j u t j u 8                             ",
"                              E j f K L M M M M N O G | 4 | w | w | B | q j o o o t u j u t j u 8                               ",
"                                f P 4 Q R t u j t j j b v | | | | | 4 S j o o o o o u t u j t 8                                 ",
"                                T _ v Q j o o o o o o t U 4 4 | w 4 O o o o o o o o o t j u V W                                 ",
"                              X | _ v Q R o o o o o o o Y Z 4 | 4 ` < t o o o o o o o o u V  ...{                               ",
"                            +.@.#.#.v $.%.t o o o o o o j &.L v A *.j o o o o o o o o u =.x -...../                             ",
"                          @ ;.>.,.#.#.'.).!.t o o o o o o j ~.A Q R o o o o o o o o u =.4 B }  ...{.<                           ",
"                          ].^.^./.(.,.>./._.:.o o o o o o o t J H o o o o o o o o o =.4 } } B }  .<.$.                          ",
"                        [.}.}.^.^.^.^././.^.|.o o o o o o o o t o o o o o o o o t =.4 } B } } } } C .._.                        ",
"                      ' }.1.1.}.}.^.^.^.^./.^.2.o o o o o o o o o o o o o o o t 3.4 } B } } B } } B ( ..4.                      ",
"                    { 1.1.1.1.1.1.1.}.}.^.^.^.^.2.o t o o o o o o o o o o o t =.4 B } } } } } } B } } } ..{                     ",
"                  / 5.1.1.1.1.1.1.1.1.1.}.}.^.}.^.: o o o o o o o o o o o t 6.4 B | } B } B } B } } B } } -./                   ",
"                < 7.1.1.1.1.1.1.1.1.1.1.1.1.1.}.}.^.S o o o o o o o o o H 8.v | | } B | } } } } } } } } } } L n                 ",
"              @ 9.1.1.1.1.1.1.1.1.1.1.1.1.1.1.1.1.0.# !.o o o o o o o j *.v _ 4 | w | } } B } B } B } B } B } a.:.              ",
"              b.}.1.1.1.1.1.1.1.1.1.1.1.1.1.1.1.1.c.d.j o o o o o o o o t S /.#._ | | | B } } } } } } } } } } e.{               ",
"              , f.c.5.5.5.5.5.5.1.5.1.g.1.1.1.1.1.0 j o o o o o o o t o t j _./.#.#.4 _ | | } B } B } B } B } K                 ",
"                X h.5.5.5.5.5.5.5.5.5.i.5.i.i.^.- 8 9 / 8 . . j.+.+.+.+.< < &.I v #.#.| | | | | } } } } } } 3 o                 ",
"                  k.h.5.5.5.5.5.5.5.5.i.5.i.^.l.X / f p f p f f / p p f p p f m.3 n.A A A A e.A e.A e.e.e.A /                   ",
"                    o.h.p.5.5.5.5.5.5.i.5.i.f.% / f p / f / / q.r.9 f p / f f 9 { [ e.A A A A A A A A A e.0                     ",
"                    @ s.p.p.p.5.5.5.5.i.5.i.r.9 f / f f / / t.#.u.+ 9 / f f p / 9 v.A A A A e.A e.A e.F K                       ",
"                      X w.p.x.p.p.p.i.5.g.^ 8 f / p f / 9 P ,.@.@.;.y.9 f p / f f 9 8.n.A A A A A e.A 3 !.                      ",
"                        z.p.p.p.p.p.p.x.~ f / p f f / / t.,.@.@.@.A.;.E 9 / f f p / f _.n.A e.A e.A 1 B.                        ",
"                          o.h.x.p.x.x.C.y.D.f / f f 9 q.,.E.@.@.@.F.@.G.% 9 f p / f / X H.n.A e.A e.I.                          ",
"                          @ C.p.p.x.w.z.h E h m.p / q.,.i.@.@.@.@.@.A A.l.% 9 f / f f 9 O n.A A 1 $.                            ",
"                            f h.p.x.[.h J.E E E h [.i.,.@.E.@.@.@.F.@.A A.K.L./ f p / 9 O n.A e.3 ,                             ",
"                              : x.o.h J.E E J.h M.x.p.h.i.@.@.@.@.@.A A A | ].m.9 / f 8 O n.n.A m.                              ",
"                                M.E J.E E h h N.x.p.x.p.p.p.i.@.@.F.@.A A A n.].{ % % { a.A |.I.                                ",
"                              @ y.h E J.E h M.x.p.p.p.p.p.p.p.p.i.@.A O.A A A A A [ [ A n.P.Q.Q.                                ",
"                              R.% E J.E h M.x.p.x.p.x.p.x.p.x.p.p.p.i.F.A A A A A A A A e.P.L.. L.                              ",
"                            E % E J.E % [.x.p.x.p.p.p.p.p.p.p.p.p.p.x.p.i.F.A A A A A A A W L./ 8 Q.                            ",
"                          Q.J.E J.E % S.T.p.x.p.p.p.x.p.x.p.x.p.x.p.p.p.p.p.i.F.A A A e.W n m./ f / U.                          ",
"                        n y.J.E E h L.@ V.p.x.x.x.x.x.x.x.x.x.x.x.x.x.x.x.x.x.x.i.@.n.W.  , L./ f / Q.                          ",
"                        R.% E E h y.n , E 9.X.9.X.9.X.9.X.9.X.9.X.9.X.9.X.9.X.9.X.9.l.m., f m./ f f 9 L.                        ",
"                      + % J.E h J.E E h E J.E h E h E h h E h E h E h E h E h E h E J.J.% X f / / / / 8 Q.                      ",
"                    @ Y.y.+ y.+ Z.+ y.+ Z.+ + + R.+ R.`.r.R.R.`.r.R.`.R.R.`.R.`.r.+ + y.+ + E  +D.m.D.Q.L.                      ",
"                      @ , , , , , , , , , , U..+++w.w.w.w.w.w.w.w.w.w.w.w.w.w.w..+n , , , , , , , , , ,                         ",
"                                              / h.p.x.p.p.x.p.x.p.x.p.x.p.x.x.+++.                                              ",
"                                                r.p.p.x.p.x.p.x.p.x.p.x.p.x.w.E                                                 ",
"                                                  N.p.x.x.p.x.x.p.x.x.p.x.w.[.                                                  ",
"                                                    C.p.x.x.x.x.x.x.x.x.x.X.                                                    ",
"                                                    8 w.x.x.x.x.x.x.x.x.h.U.                                                    ",
"                                                      + x.x.x.x.x.x.x.w.+                                                       ",
"                                                        M.x.x.x.x.x.x.M.                                                        ",
"                                                          X.x.x.x.x.X.                                                          ",
"                                                          8 h.x.x.h.8                                                           ",
"                                                            + x.w.r.                                                            ",
"                                                              M.@+                                                              ",
"                                                                                                                                "};
