/* XPM */
static char * C:\Users\dave\Desktop\icons\xuez16_xpm[] = {
"16 16 107 2",
"  	c None",
". 	c #9190A5",
"+ 	c #7F7E9A",
"@ 	c #C1C3CB",
"# 	c #3F4783",
"$ 	c #494887",
"% 	c #B7B7C3",
"& 	c #CECCD3",
"* 	c #D1D0D3",
"= 	c #A4A9B7",
"- 	c #576596",
"; 	c #5C6A98",
"> 	c #596797",
", 	c #9093B9",
"' 	c #E3DFE7",
") 	c #E9E6EE",
"! 	c #D1D0D5",
"~ 	c #B7BAC2",
"{ 	c #6E799E",
"] 	c #536393",
"^ 	c #061F65",
"/ 	c #172F70",
"( 	c #BCBED3",
"_ 	c #F1EDF5",
": 	c #D2CFD6",
"< 	c #414C79",
"[ 	c #BABBD0",
"} 	c #F2EEF5",
"| 	c #7D87AC",
"1 	c #9BA1BE",
"2 	c #EFECF3",
"3 	c #BCC0D5",
"4 	c #596394",
"5 	c #58597A",
"6 	c #0C114F",
"7 	c #292F65",
"8 	c #BBBBCD",
"9 	c #E8E5EE",
"0 	c #E7E4EE",
"a 	c #B8BBD1",
"b 	c #263E7C",
"c 	c #08256E",
"d 	c #596691",
"e 	c #9595A5",
"f 	c #13124D",
"g 	c #121249",
"h 	c #050742",
"i 	c #626288",
"j 	c #E7E5ED",
"k 	c #E6E3EC",
"l 	c #576392",
"m 	c #021B62",
"n 	c #0D296D",
"o 	c #0D2B74",
"p 	c #9CA3B5",
"q 	c #E6E6E8",
"r 	c #23244D",
"s 	c #161748",
"t 	c #30335D",
"u 	c #AEACB6",
"v 	c #A5A6B3",
"w 	c #ACABB6",
"x 	c #ACABB7",
"y 	c #2B4073",
"z 	c #112D6B",
"A 	c #253F75",
"B 	c #C0C1C5",
"C 	c #202247",
"D 	c #8E8D99",
"E 	c #A1A0AC",
"F 	c #293768",
"G 	c #33426E",
"H 	c #AEADB3",
"I 	c #979BAC",
"J 	c #193570",
"K 	c #CDCFD5",
"L 	c #8E8E96",
"M 	c #8C8B94",
"N 	c #2A2D4E",
"O 	c #131D4A",
"P 	c #11245B",
"Q 	c #394C78",
"R 	c #6A7796",
"S 	c #788298",
"T 	c #D7D7D7",
"U 	c #A2A1A4",
"V 	c #4E4F66",
"W 	c #26294B",
"X 	c #2A2C4C",
"Y 	c #2A2D4F",
"Z 	c #25325D",
"` 	c #43547A",
" .	c #AAAAB0",
"..	c #DEDDDE",
"+.	c #D3D3D4",
"@.	c #D2D2D3",
"#.	c #C7C7C8",
"$.	c #595A6D",
"%.	c #505166",
"&.	c #5B5B6C",
"*.	c #C8C8CA",
"=.	c #D9D9DA",
"-.	c #C2C2C7",
";.	c #17183F",
">.	c #C5C5CA",
",.	c #81818F",
"'.	c #828291",
"                                ",
"              . +               ",
"            @ # $ %             ",
"      & * = - ; > , ' ) !       ",
"        ~ { ] ^ / ( _ :         ",
"        < [ } | 1 2 3 4         ",
"      5 6 7 8 9 0 a b c d       ",
"    e f g h i j k l m n o p     ",
"    q r s t u v w x y z A       ",
"      B C D E F G H I J K       ",
"        L M N O P Q R S         ",
"      T U V W X Y Z `  ...      ",
"      +.@.#.$.%.%.&.*.+.=.      ",
"            -.;.;.>.            ",
"              ,.'.              ",
"                                "};
